<?xml version="1.0" encoding="UTF-8"?>
<!--Generator: Apple Native CoreSVG 175.5-->
<!DOCTYPE svg
PUBLIC "-//W3C//DTD SVG 1.1//EN"
       "http://www.w3.org/Graphics/SVG/1.1/DTD/svg11.dtd">
<svg version="1.1" xmlns="http://www.w3.org/2000/svg" xmlns:xlink="http://www.w3.org/1999/xlink" width="525.439" height="327.979">
 <g>
  <rect height="327.979" opacity="0" width="525.439" x="0" y="0"/>
  <path d="M56.543 264.111C61.2305 258.838 59.7656 251.953 54.4922 245.947C34.8633 224.121 23.877 195.41 23.877 163.916C23.877 132.422 34.8633 103.711 54.4922 81.8848C59.7656 75.8789 61.2305 68.9941 56.543 63.7207C51.8555 58.1543 43.6523 58.3008 38.0859 64.4531C13.7695 90.8203 0 125.977 0 163.916C0 201.855 13.7695 236.865 38.0859 263.379C43.6523 269.531 51.8555 269.531 56.543 264.111ZM97.5586 222.363C102.246 217.09 100.342 210.498 95.6543 204.199C86.8652 193.213 82.6172 179.15 82.6172 163.916C82.6172 148.682 86.8652 134.473 95.6543 123.633C100.342 117.334 102.246 110.742 97.5586 105.469C92.7246 99.9023 83.9355 99.9023 78.8086 106.494C66.0645 122.314 58.7402 142.383 58.7402 163.916C58.7402 185.449 66.0645 205.518 78.8086 221.338C83.9355 227.93 92.7246 227.783 97.5586 222.363ZM468.75 264.111C473.584 269.531 481.641 269.531 487.354 263.379C511.67 236.865 525.439 201.855 525.439 163.916C525.439 125.977 511.67 90.8203 487.354 64.4531C481.641 58.3008 473.584 58.1543 468.75 63.7207C464.209 68.9941 465.527 75.8789 470.947 81.8848C490.576 103.711 501.562 132.422 501.562 163.916C501.562 195.41 490.576 224.121 470.947 245.947C465.527 251.953 464.209 258.838 468.75 264.111ZM427.734 222.363C432.568 227.783 441.357 227.93 446.631 221.338C459.375 205.518 466.699 185.449 466.699 163.916C466.699 142.383 459.375 122.314 446.631 106.494C441.357 99.9023 432.568 99.9023 427.734 105.469C423.047 110.742 425.098 117.334 429.639 123.633C438.428 134.473 442.822 148.682 442.822 163.916C442.822 179.15 438.428 193.213 429.639 204.199C425.098 210.498 423.047 217.09 427.734 222.363ZM262.646 303.662C340.137 303.662 402.686 240.967 402.686 163.623C402.686 86.2793 340.137 23.584 262.646 23.584C185.303 23.584 122.607 86.2793 122.607 163.623C122.607 240.967 185.303 303.662 262.646 303.662ZM195.996 179.883C190.283 179.883 185.889 175.342 185.889 169.629C185.889 163.916 190.283 159.521 195.996 159.521L252.393 159.521L252.393 80.8594C252.393 75.1465 256.934 70.752 262.5 70.752C268.359 70.752 272.754 75.1465 272.754 80.8594L272.754 169.629C272.754 175.342 268.359 179.883 262.5 179.883ZM142.383 61.2305C144.58 61.2305 146.191 60.791 148.242 59.1797L197.314 22.2656C199.658 20.3613 200.977 18.1641 200.977 15.6738C200.977 12.5977 199.512 10.1074 197.021 7.76367C191.455 2.63672 181.494 0 172.852 0C149.854 0 131.543 18.3105 131.543 41.0156C131.543 46.582 132.568 52.002 134.033 55.3711C135.645 58.8867 138.721 61.2305 142.383 61.2305ZM383.057 61.2305C386.572 61.2305 389.648 58.7402 391.406 55.3711C393.018 52.1484 393.75 46.582 393.75 41.0156C393.75 18.3105 375.586 0 352.588 0C343.799 0 333.984 2.63672 328.418 7.76367C325.781 10.1074 324.316 12.5977 324.316 15.6738C324.316 18.1641 325.635 20.3613 328.125 22.2656L377.197 59.1797C379.248 60.791 380.859 61.2305 383.057 61.2305ZM140.186 299.561C144.58 303.955 151.758 303.955 156.299 299.414L183.984 271.875L168.164 256.055L140.332 283.74C135.791 288.135 135.938 295.312 140.186 299.561ZM385.254 299.561C389.502 295.312 389.648 288.135 385.107 283.74L357.275 256.055L341.455 271.875L368.994 299.414C373.535 303.955 380.713 303.955 385.254 299.561Z" fill="#fff7ba"/>
 </g>
</svg>
